<svg width="5364" height="1664" viewBox="0 0 5364 1664" fill="none" xmlns="http://www.w3.org/2000/svg">
<path d="M5363.86 1503.36C5363.86 1592.2 5294.81 1664 5209.47 1664H154.595C69.2476 1664 0 1592.2 0 1503.36V222.549C0 133.852 69.2476 61.7725 154.595 61.7725H5209.4C5294.81 61.7725 5363.86 133.852 5363.86 222.549V1503.36Z" fill="white"/>
<path d="M5363.86 1503.36C5363.86 1592.2 5294.81 1664 5209.47 1664H154.595C69.2476 1664 0 1592.2 0 1503.36V222.549C0 133.852 69.2476 61.7725 154.595 61.7725H5209.4C5294.81 61.7725 5363.86 133.852 5363.86 222.549V1503.36Z" fill="black"/>
<path d="M1177.88 854.151C1176.74 718.896 1284.18 653.127 1289.16 650.112C1228.27 557.699 1133.89 545.078 1100.69 544.096C1021.47 535.402 944.609 593.458 904.26 593.458C863.102 593.458 800.927 544.938 733.97 546.34C647.747 547.742 567.048 599.699 522.792 680.402C431.517 844.895 499.619 1086.66 587.055 1219.6C630.772 1284.8 681.967 1357.52 748.857 1354.92C814.332 1352.12 838.784 1311.45 917.799 1311.45C996.073 1311.45 1019.04 1354.92 1087.28 1353.24C1157.54 1352.12 1201.8 1287.82 1244.03 1222.12C1294.55 1147.59 1314.83 1073.97 1315.64 1070.11C1314.09 1069.62 1179.3 1016.05 1177.88 854.151Z" fill="white"/>
<path d="M1048.95 456.668C1084.18 410.811 1108.3 348.408 1101.56 285.163C1050.64 287.477 986.845 321.834 950.133 366.708C917.732 406.184 888.699 470.901 896.176 531.832C953.433 536.25 1012.24 501.752 1048.95 456.668Z" fill="white"/>
<path d="M1969.38 1112.89L1924.05 967.185C1919.33 952.25 1910.24 917.192 1897.03 861.94H1895.42C1890.09 885.78 1881.61 920.768 1869.95 967.185L1825.43 1112.89H1969.38ZM2126.13 1345.53H2034.65L1984.54 1181.6H1810.34L1762.65 1345.53H1673.53L1846.11 787.477H1952.74" fill="white"/>
<path d="M2481.73 1142.69C2481.73 1103.49 2473.24 1071.17 2456.2 1045.71C2437.68 1019.28 2412.68 1006.03 2381.43 1006.03C2360.28 1006.03 2341.01 1013.46 2323.84 1027.97C2306.59 1042.7 2295.34 1061.84 2290.02 1085.61C2287.39 1096.69 2286.05 1105.66 2286.05 1112.82V1179.92C2286.05 1209.16 2294.67 1233.84 2311.84 1254.1C2329.09 1274.22 2351.45 1284.25 2379.07 1284.25C2411.47 1284.25 2436.6 1271.28 2454.65 1245.34C2472.7 1219.46 2481.73 1185.18 2481.73 1142.69ZM2569.23 1139.39C2569.23 1207.82 2551.38 1261.95 2515.61 1301.64C2483.62 1336.98 2443.87 1354.65 2396.45 1354.65C2345.26 1354.65 2308.41 1335.65 2286.05 1297.57V1508.76H2200.16V1075.51C2200.16 1032.39 2199.08 988.359 2196.93 943.134H2272.51L2277.29 1006.94H2278.91C2307.6 958.91 2351.05 934.86 2409.38 934.86C2454.99 934.86 2493.05 953.581 2523.49 991.094C2553.94 1028.75 2569.23 1078.11 2569.23 1139.39Z" fill="white"/>
<path d="M2926.32 1142.69C2926.32 1103.49 2917.83 1071.17 2900.79 1045.71C2882.26 1019.28 2857.34 1006.03 2826.08 1006.03C2804.86 1006.03 2785.67 1013.46 2768.42 1027.97C2751.18 1042.7 2739.93 1061.84 2734.61 1085.61C2731.98 1096.69 2730.56 1105.66 2730.56 1112.82V1179.92C2730.56 1209.16 2739.25 1233.84 2756.43 1254.1C2773.74 1274.08 2796.04 1284.25 2823.66 1284.25C2856.06 1284.25 2881.25 1271.28 2899.24 1245.34C2917.29 1219.46 2926.32 1185.18 2926.32 1142.69ZM3013.82 1139.39C3013.82 1207.82 2995.97 1261.95 2960.27 1301.64C2928.27 1336.98 2888.53 1354.65 2841.04 1354.65C2789.84 1354.65 2753.06 1335.65 2730.63 1297.57V1508.76H2644.75V1075.51C2644.75 1032.39 2643.67 988.359 2641.65 943.134H2717.16L2721.94 1006.94H2723.56C2752.12 958.91 2795.57 934.86 2854.04 934.86C2899.57 934.86 2937.7 953.581 2968.15 991.094C2998.53 1028.75 3013.82 1078.11 3013.82 1139.39Z" fill="white"/>
<path d="M3511.01 1189.03C3511.01 1236.57 3495.05 1275.13 3463.39 1305C3428.43 1337.47 3379.73 1353.81 3317.35 1353.81C3259.62 1353.81 3213.34 1342.24 3178.45 1319.03L3198.32 1244.56C3235.98 1267.77 3277.4 1279.34 3322.4 1279.34C3354.8 1279.34 3380 1271.7 3397.98 1256.55C3415.97 1241.41 3425.06 1221.08 3425.06 1195.76C3425.06 1173.12 3417.58 1154.11 3402.76 1138.62C3387.88 1123.12 3363.29 1108.75 3328.8 1095.5C3234.9 1059.11 3187.95 1005.75 3187.95 935.702C3187.95 889.916 3204.52 852.404 3237.66 823.165C3270.8 793.857 3314.66 779.272 3369.29 779.272C3418.12 779.272 3458.74 788.107 3491.01 805.776L3469.52 878.557C3439.07 861.449 3404.78 852.895 3366.46 852.895C3336.08 852.895 3312.36 860.748 3295.32 876.173C3281.11 889.916 3273.83 906.744 3273.83 926.727C3273.83 948.744 3282.12 967.044 3298.49 981.277C3312.77 994.529 3338.77 1008.97 3376.43 1024.4C3422.57 1043.75 3456.45 1066.26 3478.21 1092.2C3500.1 1118.14 3511.01 1150.47 3511.01 1189.03Z" fill="white"/>
<path d="M3795.75 1010.24H3701.04V1205.65C3701.04 1255.36 3717.75 1280.11 3751.09 1280.11C3766.45 1280.11 3779.18 1278.78 3789.28 1275.98L3791.71 1343.85C3774.73 1350.44 3752.44 1353.74 3724.89 1353.74C3691 1353.74 3664.46 1342.94 3645.27 1321.41C3626.2 1299.89 3616.64 1263.71 3616.64 1212.94V1010.1H3560.32V942.995H3616.64V869.232L3701.04 842.729V942.995H3795.75" fill="white"/>
<path d="M4132.96 1143.04C4132.96 1106.22 4125.28 1074.6 4109.92 1048.17C4091.94 1016.19 4066.21 1000.21 4032.73 1000.21C3998.37 1000.21 3971.97 1016.19 3954.05 1048.17C3938.56 1074.6 3931.01 1106.78 3931.01 1144.79C3931.01 1181.6 3938.56 1213.36 3954.05 1239.73C3972.57 1271.7 3998.51 1287.68 4032.05 1287.68C4064.93 1287.68 4090.66 1271.35 4109.32 1238.95C4125.01 1211.89 4132.96 1180.06 4132.96 1143.04ZM4221.95 1141C4221.95 1202.91 4205.04 1253.61 4171.09 1293.36C4135.59 1334.24 4088.37 1354.65 4029.56 1354.65C3972.71 1354.65 3927.58 1335.08 3893.9 1295.96C3860.22 1256.69 3843.38 1207.33 3843.38 1147.73C3843.38 1085.4 3860.75 1034.28 3895.45 994.529C3930.2 954.843 3976.95 935 4035.83 935C4092.61 935 4138.15 954.562 4172.64 993.757C4205.58 1031.83 4221.95 1080.84 4221.95 1141Z" fill="white"/>
<path d="M4501.29 1021.8C4492.81 1020.12 4483.78 1019.28 4474.21 1019.28C4444.04 1019.28 4420.66 1031.13 4404.23 1054.9C4389.88 1075.93 4382.8 1102.37 4382.8 1134.41V1345.53H4296.92V1069.83C4296.92 1023.49 4296.11 981.207 4294.36 943.204H4369.2L4372.36 1020.19H4374.72C4383.82 993.688 4398.16 972.443 4417.63 956.456C4436.76 942.012 4457.51 934.86 4479.74 934.86C4487.69 934.86 4494.89 935.491 4501.29 936.473" fill="white"/>
<path d="M4803.54 1102.09C4804.22 1075.58 4798.56 1052.73 4786.91 1033.37C4772.02 1008.48 4749.12 996.072 4718.4 996.072C4690.38 996.072 4667.54 1008.13 4650.1 1032.46C4635.81 1051.81 4627.26 1075.09 4624.7 1102.09H4803.54ZM4885.46 1125.3C4885.46 1141.35 4884.45 1154.82 4882.36 1165.82H4624.7C4625.64 1205.65 4638.17 1236.01 4662.09 1256.97C4683.78 1275.77 4711.87 1285.16 4746.36 1285.16C4784.48 1285.16 4819.31 1278.85 4850.56 1266.09L4864.04 1328.14C4827.46 1344.76 4784.28 1352.96 4734.43 1352.96C4674.48 1352.96 4627.39 1334.59 4593.18 1297.99C4559.02 1261.32 4541.91 1212.03 4541.91 1150.26C4541.91 1089.61 4557.74 1039.12 4589.67 998.736C4623.08 955.685 4668.08 934.229 4724.87 934.229C4780.57 934.229 4822.74 955.685 4851.37 998.736C4874.07 1032.81 4885.46 1075.09 4885.46 1125.3Z" fill="white"/>
<path d="M1851.29 473.495L1829 401.836C1826.57 394.544 1822.26 377.295 1815.66 350.16H1814.92C1812.36 361.8 1808.12 379.118 1802.46 401.836L1780.57 473.495H1851.29ZM1928.22 587.785H1883.36L1858.7 507.221H1773.09L1749.65 587.785H1705.93L1790.74 313.63H1843.08" fill="white"/>
<path d="M2140.07 390.057L2068.13 587.714H2027.04L1957.52 390.057H2002.86L2035.26 494.6C2040.72 511.989 2045.3 528.677 2048.93 544.663H2050.08C2053.24 530.289 2057.76 513.602 2063.82 494.6L2095.82 390.057" fill="white"/>
<path d="M2287.8 519.843V489.273C2241.18 488.501 2217.88 501.753 2217.88 529.169C2217.88 539.476 2220.57 547.189 2226.03 552.377C2231.48 557.496 2238.35 560.09 2246.64 560.09C2255.94 560.09 2264.56 557.005 2272.44 550.905C2280.39 544.805 2285.24 537.092 2286.99 527.556L2287.8 519.843ZM2331.58 587.716H2293.66L2290.49 564.928H2289.35C2276.35 583.158 2257.82 592.203 2233.84 592.203C2215.85 592.203 2201.37 586.173 2190.39 574.324C2180.56 563.526 2175.64 550.063 2175.64 534.077C2175.64 509.957 2185.27 491.516 2204.74 478.755C2224.14 465.994 2251.42 459.754 2286.58 460.104V456.318C2286.58 430.375 2273.45 417.333 2247.11 417.333C2228.38 417.333 2211.88 422.171 2197.47 431.917L2188.91 403.1C2206.56 391.741 2228.38 385.991 2254.18 385.991C2303.96 385.991 2328.82 413.337 2328.82 467.817V540.598C2328.82 560.37 2329.7 576.076 2331.58 587.716Z" fill="white"/>
<path d="M2444.48 587.715H2402.31V390.057H2444.48V587.715ZM2449.2 331.019C2449.2 339.012 2446.7 345.253 2441.72 350.231C2436.8 355.139 2430.4 357.523 2422.59 357.523C2415.51 357.523 2409.65 354.999 2404.87 350.091C2400.02 345.042 2397.6 338.732 2397.6 331.089C2397.6 323.517 2400.09 317.276 2405.01 312.438C2409.99 307.53 2416.05 305.076 2423.4 305.076C2430.67 305.076 2436.8 307.53 2441.79 312.438C2446.7 317.276 2449.2 323.517 2449.2 331.019Z" fill="white"/>
<path d="M2519.52 587.715H2561.69V299.396H2519.52V587.715Z" fill="white"/>
<path d="M2735.62 519.843V489.273C2688.93 488.501 2665.63 501.753 2665.63 529.169C2665.63 539.476 2668.32 547.189 2673.78 552.377C2679.23 557.496 2686.11 560.09 2694.39 560.09C2703.69 560.09 2712.31 557.005 2720.26 550.905C2728.07 544.805 2732.99 537.092 2734.81 527.556L2735.62 519.843ZM2779.33 587.716H2741.41L2738.31 564.928H2737.23C2724.16 583.158 2705.71 592.203 2681.73 592.203C2663.74 592.203 2649.33 586.173 2638.35 574.324C2628.44 563.526 2623.46 550.063 2623.46 534.077C2623.46 509.957 2633.16 491.516 2652.63 478.755C2672.03 465.994 2699.24 459.754 2734.47 460.104V456.318C2734.47 430.375 2721.34 417.333 2695 417.333C2676.2 417.333 2659.7 422.171 2645.42 431.917L2636.8 403.1C2654.45 391.741 2676.2 385.991 2702 385.991C2751.78 385.991 2776.64 413.337 2776.64 467.817V540.598C2776.57 560.37 2777.58 576.076 2779.33 587.716Z" fill="white"/>
<path d="M2988.49 487.729C2988.49 468.447 2984.31 452.741 2975.89 440.541C2966.73 427.218 2954.41 420.557 2938.71 420.557C2928.34 420.557 2918.97 424.133 2910.62 431.145C2902.34 438.157 2896.74 447.482 2893.92 459.192C2892.84 463.819 2892.37 468.447 2892.37 473.004V507.572C2892.37 521.174 2896.61 532.814 2905.37 542.56C2914.12 552.306 2924.97 557.144 2938.04 557.144C2953.93 557.144 2966.26 550.974 2975.15 538.493C2983.98 526.082 2988.49 509.114 2988.49 487.729ZM3031.4 486.046C3031.4 519.421 3022.58 545.995 3004.86 565.768C2989.23 583.438 2970.1 592.202 2947.4 592.202C2920.25 592.202 2900.38 580.633 2887.58 557.284H2886.77L2884.48 587.785H2848.51C2849.46 571.868 2850 554.059 2850 534.496V299.396H2892.23V418.945C2904.76 396.998 2925.04 385.99 2953.19 385.99C2976.23 385.99 2995.02 395.175 3009.51 413.476C3024.12 431.706 3031.4 456.036 3031.4 486.046Z" fill="white"/>
<path d="M3093.91 587.715H3136.15V299.396H3093.91V587.715Z" fill="white"/>
<path d="M3327.25 468.167C3327.45 455.125 3324.76 443.906 3319.03 434.441C3311.69 422.24 3300.51 416.14 3285.42 416.14C3271.54 416.14 3260.43 422.03 3251.74 434.02C3244.73 443.556 3240.69 454.915 3239.28 468.167H3327.25ZM3367.53 479.595C3367.53 487.449 3366.93 494.039 3365.92 499.438H3239.28C3239.82 519.071 3245.95 533.936 3257.6 544.173C3268.38 553.498 3282.12 558.056 3299.09 558.056C3317.82 558.056 3334.86 554.97 3350.22 548.66L3356.76 579.301C3338.84 587.364 3317.62 591.431 3293.17 591.431C3263.73 591.431 3240.62 582.386 3223.72 564.436C3206.94 546.346 3198.59 522.226 3198.59 491.796C3198.59 461.996 3206.34 437.175 3222.1 417.332C3238.47 396.227 3260.56 385.64 3288.45 385.64C3315.8 385.64 3336.48 396.227 3350.63 417.332C3361.88 434.09 3367.53 454.915 3367.53 479.595Z" fill="white"/>
<path d="M3672.68 488.29C3672.68 470.2 3668.91 454.704 3661.36 441.663C3652.47 426.027 3639.94 418.244 3623.51 418.244C3606.53 418.244 3593.67 426.027 3584.84 441.663C3577.16 454.704 3573.46 470.481 3573.46 489.131C3573.46 507.292 3577.3 522.787 3584.84 535.829C3594 551.465 3606.67 559.318 3623.17 559.318C3639.2 559.318 3651.87 551.325 3660.89 535.408C3668.77 522.086 3672.68 506.45 3672.68 488.29ZM3716.47 487.238C3716.47 517.669 3708.11 542.63 3691.41 562.123C3673.89 582.246 3650.72 592.202 3621.89 592.202C3594 592.202 3571.77 582.597 3555.2 563.315C3538.7 544.103 3530.48 519.842 3530.48 490.534C3530.48 459.893 3538.97 434.791 3556.08 415.299C3573.12 395.807 3596.09 386.061 3625.06 386.061C3652.88 386.061 3675.31 395.666 3692.28 414.878C3708.38 433.599 3716.47 457.719 3716.47 487.238Z" fill="white"/>
<path d="M3943.88 587.785H3901.71V474.266C3901.71 439.208 3888.98 421.749 3863.38 421.749C3850.85 421.749 3840.82 426.587 3832.93 436.193C3825.05 445.869 3821.21 457.158 3821.21 470.2V587.715H3778.98V446.571C3778.98 429.182 3778.44 410.32 3777.43 389.917H3814.54L3816.5 420.487H3817.71C3822.63 411.022 3829.97 403.169 3839.54 396.928C3850.99 389.636 3863.79 385.92 3877.8 385.92C3895.51 385.92 3910.33 391.95 3922.05 403.87C3936.67 418.524 3943.88 440.33 3943.88 469.358" fill="white"/>
<path d="M4220.13 423.012H4173.72V519.072C4173.72 543.472 4181.87 555.602 4198.3 555.602C4205.85 555.602 4212.11 554.971 4216.96 553.569L4218.17 586.944C4209.89 590.24 4198.91 591.852 4185.37 591.852C4168.73 591.852 4155.8 586.523 4146.37 576.006C4137 565.418 4132.22 547.609 4132.22 522.647V423.012H4104.47V390.128H4132.22V353.878L4173.65 340.836V390.058H4220.13" fill="white"/>
<path d="M4443.3 587.785H4401.06V475.038C4401.06 439.489 4388.26 421.749 4362.8 421.749C4343.26 421.749 4329.79 432.057 4322.52 452.671C4321.24 457.088 4320.56 462.277 4320.56 468.517V587.715H4278.4V299.396H4320.56V418.173H4321.3C4334.57 396.718 4353.77 386.06 4378.36 386.06C4395.94 386.06 4410.29 392.02 4421.81 403.94C4436.09 418.875 4443.3 440.961 4443.3 470.2" fill="white"/>
<path d="M4620.32 468.167C4620.59 455.125 4617.83 443.906 4612.17 434.441C4604.83 422.24 4593.65 416.14 4578.56 416.14C4564.68 416.14 4553.5 422.03 4544.94 434.02C4537.87 443.556 4533.76 454.915 4532.48 468.167H4620.32ZM4660.6 479.595C4660.6 487.449 4660.13 494.039 4659.05 499.438H4532.48C4532.95 519.071 4539.08 533.936 4550.8 544.173C4561.45 553.498 4575.26 558.056 4592.16 558.056C4610.96 558.056 4628.07 554.97 4643.29 548.66L4649.96 579.301C4631.98 587.364 4610.69 591.431 4586.17 591.431C4556.8 591.431 4533.69 582.386 4516.79 564.436C4500.01 546.346 4491.59 522.226 4491.59 491.796C4491.59 461.996 4499.41 437.175 4515.1 417.332C4531.47 396.227 4553.63 385.64 4581.45 385.64C4608.87 385.64 4629.62 396.227 4643.63 417.332C4654.95 434.09 4660.6 454.915 4660.6 479.595Z" fill="white"/>
</svg>
