<svg width="5436" height="1604" viewBox="0 0 5436 1604" fill="none" xmlns="http://www.w3.org/2000/svg">
<path fill-rule="evenodd" clip-rule="evenodd" d="M5234.4 1604H201.4C90.4 1604 0 1513.6 0 1403.5V200.5C0 90 90.4 0 201.4 0H5234.4C5345.3 0 5435.8 90 5435.8 200.5V1403.5C5435.8 1513.6 5345.3 1604 5234.4 1604Z" fill="black"/>
<path d="M2863.6 530.6C2827.3 530.6 2796.7 517.9 2772.5 492.9C2748.5 468.6 2735.1 435.1 2735.7 400.9C2735.7 364.4 2748.1 333.5 2772.5 309C2796.6 284 2827.2 271.3 2863.5 271.3C2899.4 271.3 2930 284 2954.6 309C2979 334.3 2991.4 365.2 2991.4 400.9C2991 437.5 2978.6 468.4 2954.6 492.8C2930.5 518 2899.9 530.6 2863.6 530.6ZM1783.5 530.6C1748 530.6 1717.2 518.1 1692 493.4C1667 468.8 1654.3 437.7 1654.3 401C1654.3 364.3 1667 333.2 1692 308.6C1716.7 283.9 1747.5 271.4 1783.5 271.4C1801.1 271.4 1818.2 274.9 1834.6 282C1850.7 288.9 1863.8 298.3 1873.5 309.8L1875.9 312.7L1848.8 339.3L1846 336C1830.7 317.8 1810.2 308.9 1783.1 308.9C1758.9 308.9 1737.8 317.5 1720.4 334.5C1702.9 351.6 1694 374 1694 401.1C1694 428.2 1702.9 450.6 1720.4 467.7C1737.8 484.7 1758.9 493.3 1783.1 493.3C1808.9 493.3 1830.6 484.7 1847.5 467.7C1857.5 457.7 1863.7 443.7 1865.9 426H1779V388.6H1903.2L1903.7 392C1904.6 398.3 1905.5 404.8 1905.5 410.8C1905.5 445.3 1895.1 473.2 1874.5 493.8C1851.1 518.2 1820.5 530.6 1783.5 530.6ZM3219.6 525.3H3181.3L3064 337.6L3065 371.4V525.2H3026.7V276.7H3070.4L3071.6 278.6L3181.9 455.4L3180.9 421.7V276.7H3219.6V525.3V525.3ZM2575.8 525.3H2537V314.1H2469.7V276.7H2643V314.1H2575.7V525.3H2575.8ZM2438.1 525.3H2399.4V276.7H2438.1V525.3ZM2220.6 525.3H2181.9V314.1H2114.6V276.7H2287.9V314.1H2220.6V525.3ZM2090.1 524.9H1941.7V276.7H2090.1V314.1H1980.5V382.3H2079.4V419.3H1980.5V487.5H2090.1V524.9ZM2800.9 467.2C2818.2 484.5 2839.2 493.2 2863.6 493.2C2888.7 493.2 2909.2 484.7 2926.3 467.2C2943.3 450.2 2951.9 427.9 2951.9 401C2951.9 374.1 2943.3 351.7 2926.4 334.8C2909.1 317.5 2888 308.8 2863.7 308.8C2838.6 308.8 2818.1 317.3 2801.1 334.8C2784.1 351.8 2775.5 374.1 2775.5 401C2775.5 427.9 2784 450.3 2800.9 467.2Z" fill="white"/>
<path fill-rule="evenodd" clip-rule="evenodd" d="M2732.1 872.4C2637.6 872.4 2561 944.1 2561 1043C2561 1141 2638.1 1213.6 2732.1 1213.6C2826.6 1213.6 2903.2 1141.4 2903.2 1043C2903.2 944.1 2826.6 872.4 2732.1 872.4ZM2732.1 1146C2680.4 1146 2635.9 1103.2 2635.9 1042.6C2635.9 981.1 2680.5 939.2 2732.1 939.2C2783.8 939.2 2828.3 981.1 2828.3 1042.6C2828.4 1103.6 2783.8 1146 2732.1 1146ZM2358.8 872.4C2264.3 872.4 2187.7 944.1 2187.7 1043C2187.7 1141 2264.8 1213.6 2358.8 1213.6C2453.3 1213.6 2529.9 1141.4 2529.9 1043C2529.9 944.1 2453.2 872.4 2358.8 872.4ZM2358.8 1146C2307.1 1146 2262.6 1103.2 2262.6 1042.6C2262.6 981.1 2307.2 939.2 2358.8 939.2C2410.5 939.2 2455 981.1 2455 1042.6C2455 1103.6 2410.5 1146 2358.8 1146ZM1914.6 924.5V996.7H2087.9C2082.6 1037.2 2069.2 1067.1 2048.7 1087.6C2023.3 1113 1984.1 1140.6 1915 1140.6C1808.5 1140.6 1725.2 1054.6 1725.2 948.1C1725.2 841.6 1808.5 755.6 1915 755.6C1972.5 755.6 2014.4 778.3 2045.5 807.3L2096.7 756.1C2053.5 714.7 1996 683 1915.4 683C1769.3 683 1646.7 802 1646.7 947.7C1646.7 1093.8 1769.2 1212.4 1915.4 1212.4C1994.3 1212.4 2053.5 1186.6 2100.3 1138C2148 1090.3 2163.1 1023 2163.1 968.7C2163.1 951.8 2161.8 936.6 2159.1 923.7H1914.5C1914.6 923.6 1914.6 924.5 1914.6 924.5ZM3731.5 980.7C3717.2 942.4 3674 872 3585.4 872C3497.6 872 3424.6 941.1 3424.6 1042.6C3424.6 1138.4 3496.8 1213.2 3593.9 1213.2C3671.9 1213.2 3717.3 1165.5 3736 1137.5L3678.1 1098.7C3658.9 1127.2 3632.2 1145.9 3594.3 1145.9C3556 1145.9 3529.2 1128.5 3511.4 1094.2L3739.5 999.7C3739.5 999.8 3731.5 980.7 3731.5 980.7ZM3498.9 1037.7C3497.1 971.8 3550.1 938.3 3588 938.3C3617.9 938.3 3642.8 953 3651.3 974.4L3498.9 1037.7ZM3313.6 1203H3388.5V701.8H3313.6V1203ZM3190.6 910.3H3187.9C3171 890.2 3138.9 872 3097.9 872C3012.8 872 2934.4 946.9 2934.4 1043.1C2934.4 1138.9 3012.4 1212.9 3097.9 1212.9C3138.4 1212.9 3171 1194.6 3187.9 1174.1H3190.6V1198.6C3190.6 1263.7 3155.8 1298.8 3099.7 1298.8C3053.8 1298.8 3025.3 1265.8 3013.7 1238.2L2948.6 1265.4C2967.3 1310.4 3017.2 1366.1 3099.6 1366.1C3187.4 1366.1 3261.8 1314.4 3261.8 1188.3V882.2H3191V910.3C3191.1 910.3 3190.6 910.3 3190.6 910.3ZM3104.6 1146C3052.9 1146 3009.7 1102.8 3009.7 1043.1C3009.7 982.9 3052.9 939.3 3104.6 939.3C3155.8 939.3 3195.5 983.4 3195.5 1043.1C3196 1102.8 3155.9 1146 3104.6 1146ZM4082.2 701.8H3903.1V1203H3978V1013.2H4082.3C4165.2 1013.2 4246.7 953.1 4246.7 857.7C4246.7 762.3 4165.5 701.8 4082.2 701.8ZM4084.4 943.2H3977.9V771.2H4084.4C4140.5 771.2 4172.2 817.5 4172.2 857.2C4172.2 896.5 4140.1 943.2 4084.4 943.2ZM4546.9 871.5C4492.5 871.5 4436.4 895.6 4413.2 948.1L4479.6 975.7C4493.9 948.1 4520.1 938.7 4547.8 938.7C4586.6 938.7 4625.8 961.9 4626.7 1003.3V1008.6C4613.3 1001 4583.9 989.4 4548.7 989.4C4477 989.4 4404.3 1028.6 4404.3 1102.1C4404.3 1169.4 4463.1 1212.6 4528.6 1212.6C4578.9 1212.6 4606.6 1189.9 4623.9 1163.6H4626.6V1202.4H4698.8V1010.4C4698.8 921 4632.4 871.5 4546.9 871.5ZM4537.5 1146C4513 1146 4478.7 1134 4478.7 1103.2C4478.7 1064.4 4521.5 1049.7 4558 1049.7C4591 1049.7 4606.6 1056.8 4626.2 1066.6C4620.8 1111.6 4582.8 1145.6 4537.5 1146ZM4962.2 882.2L4876.2 1099.6H4873.5L4784.4 882.2H4703.8L4837.5 1186.1L4761.3 1355H4839.3L5045 882.2H4962.2ZM4288 1203H4362.9V701.8H4288V1203Z" fill="white"/>
<path fill-rule="evenodd" clip-rule="evenodd" d="M418.4 302.1C406.8 314.6 400.1 333.7 400.1 358.7V1245.4C400.1 1270.4 406.8 1289.5 418.8 1301.5L421.9 1304.2L918.7 807.4V796.3L421.5 299.4L418.4 302.1Z" fill="url(#paint0_linear_59271_136)"/>
<path fill-rule="evenodd" clip-rule="evenodd" d="M1084 973.5L918.3 807.8V796.2L1084 630.5L1087.6 632.7L1283.6 744.1C1339.7 775.7 1339.7 827.9 1283.6 859.9L1087.6 971.3L1084 973.5Z" fill="url(#paint1_linear_59271_136)"/>
<path fill-rule="evenodd" clip-rule="evenodd" d="M1087.6 971.3L918.3 802L418.4 1301.9C436.7 1321.5 467.4 1323.7 501.7 1304.6L1087.6 971.3Z" fill="url(#paint2_linear_59271_136)"/>
<path fill-rule="evenodd" clip-rule="evenodd" d="M1087.6 632.7L501.7 299.9C467.4 280.3 436.6 283 418.4 302.6L918.3 802L1087.6 632.7Z" fill="url(#paint3_linear_59271_136)"/>
<path opacity="0.2" fill-rule="evenodd" clip-rule="evenodd" d="M1084 967.7L502.1 1298.3C469.6 1317 440.6 1315.7 421.9 1298.7L418.8 1301.8L421.9 1304.5C440.6 1321.4 469.6 1322.8 502.1 1304.1L1088 971.3L1084 967.7Z" fill="black"/>
<path opacity="0.12" fill-rule="evenodd" clip-rule="evenodd" d="M1283.6 854.1L1083.5 967.7L1087.1 971.3L1283.1 859.9C1311.2 843.9 1325 822.9 1325 802C1323.3 821.2 1309 839.4 1283.6 854.1Z" fill="black"/>
<path opacity="0.25" fill-rule="evenodd" clip-rule="evenodd" d="M501.7 305.7L1283.6 749.9C1309 764.2 1323.3 782.9 1325.5 802C1325.5 781.1 1311.7 760.1 1283.6 744.1L501.7 299.9C445.6 267.8 400.1 294.6 400.1 358.7V364.5C400.1 300.3 445.6 274 501.7 305.7Z" fill="white"/>
<defs>
<linearGradient id="paint0_linear_59271_136" x1="874.138" y1="349.134" x2="78.35" y2="561.172" gradientUnits="userSpaceOnUse">
<stop stop-color="#00A0FF"/>
<stop offset="0.00657" stop-color="#00A1FF"/>
<stop offset="0.2601" stop-color="#00BEFF"/>
<stop offset="0.5122" stop-color="#00D2FF"/>
<stop offset="0.7604" stop-color="#00DFFF"/>
<stop offset="1" stop-color="#00E3FF"/>
</linearGradient>
<linearGradient id="paint1_linear_59271_136" x1="1356.76" y1="802.001" x2="386.465" y2="802.001" gradientUnits="userSpaceOnUse">
<stop stop-color="#FFE000"/>
<stop offset="0.4087" stop-color="#FFBD00"/>
<stop offset="0.7754" stop-color="#FFA500"/>
<stop offset="1" stop-color="#FF9C00"/>
</linearGradient>
<linearGradient id="paint2_linear_59271_136" x1="995.541" y1="894.123" x2="356.687" y2="1969.37" gradientUnits="userSpaceOnUse">
<stop stop-color="#FF3A44"/>
<stop offset="1" stop-color="#C31162"/>
</linearGradient>
<linearGradient id="paint3_linear_59271_136" x1="292.52" y1="7.16953" x2="577.538" y2="487.391" gradientUnits="userSpaceOnUse">
<stop stop-color="#32A071"/>
<stop offset="0.0685" stop-color="#2DA771"/>
<stop offset="0.4762" stop-color="#15CF74"/>
<stop offset="0.8009" stop-color="#06E775"/>
<stop offset="1" stop-color="#00F076"/>
</linearGradient>
</defs>
</svg>
