<svg width="5436" height="1604" viewBox="0 0 5436 1604" fill="none" xmlns="http://www.w3.org/2000/svg">
<path d="M5274.96 11.8223H161.469C80.2833 11.8223 14.4691 77.6366 14.4691 158.822V1445.69C14.4691 1526.87 80.2834 1592.69 161.469 1592.69H5274.96C5356.14 1592.69 5421.96 1526.87 5421.96 1445.69V158.822C5421.96 77.6364 5356.14 11.8223 5274.96 11.8223Z" fill="black"/>
<path d="M970.769 352.676H443.546V783.494H970.769V352.676Z" fill="#F25022"/>
<path d="M1552.73 352.676H1025.5V783.494H1552.73V352.676Z" fill="#7FBA00"/>
<path d="M970.769 827.704H443.546V1258.52H970.769V827.704Z" fill="#00A4EF"/>
<path d="M1552.73 827.704H1025.5V1258.52H1552.73V827.704Z" fill="#FFB900"/>
<path d="M2568.79 837.985C2568.79 825.132 2574.45 814.85 2585.78 806.11C2597.1 797.371 2610.31 793.258 2626.04 793.258C2642.4 793.258 2656.24 797.885 2666.94 806.624C2677.63 815.364 2683.3 826.16 2683.3 837.985C2683.3 850.323 2677.63 861.119 2666.31 869.345C2654.98 878.085 2641.77 882.198 2625.41 882.198C2609.06 882.198 2595.84 878.085 2584.52 869.345C2574.45 860.605 2568.79 850.323 2568.79 837.985ZM2672.6 1258.52H2578.86V932.065H2672.6V1258.52Z" fill="white"/>
<path d="M2958.23 1202.48C2972.07 1202.48 2987.8 1199.91 3004.79 1194.77C3021.78 1189.63 3036.87 1182.43 3051.34 1173.69V1245.15C3036.25 1252.35 3019.26 1257.49 3000.38 1261.09C2981.51 1264.69 2960.12 1266.75 2937.47 1266.75C2878.96 1266.75 2831.14 1251.32 2794.03 1220.99C2756.91 1190.66 2738.66 1151.59 2738.66 1104.8C2738.66 1052.37 2757.53 1009.18 2795.28 975.25C2833.03 941.319 2885.88 924.354 2955.09 924.354C2972.7 924.354 2990.32 926.41 3008.56 930.009C3026.81 933.607 3040.65 938.234 3051.34 942.861V1016.38C3036.87 1007.64 3021.77 1000.95 3006.68 996.328C2991.58 991.701 2975.85 989.13 2960.12 989.13C2923 989.13 2893.43 998.898 2870.15 1018.43C2847.5 1037.97 2836.18 1064.7 2836.18 1098.12C2836.18 1131.02 2846.87 1156.73 2868.89 1175.24C2890.91 1193.74 2920.48 1202.48 2958.23 1202.48Z" fill="white"/>
<path d="M3318.73 926.925C3326.28 926.925 3333.2 927.439 3338.87 927.953C3344.53 928.981 3350.19 930.009 3353.97 931.038V1008.67C3348.93 1005.58 3342.01 1003.01 3332.57 1000.44C3323.14 997.871 3311.81 996.329 3297.97 996.329C3274.69 996.329 3255.19 1004.04 3239.46 1019.98C3223.73 1035.91 3215.55 1060.08 3215.55 1093.49V1258.52H3121.81V932.066H3215.55V983.476H3216.81C3225.62 965.482 3238.2 951.602 3255.82 941.834C3273.44 932.066 3294.2 926.925 3318.73 926.925Z" fill="white"/>
<path d="M3359 1100.18C3359 1046.2 3377.87 1003.53 3414.99 971.651C3452.11 940.291 3504.33 924.354 3570.39 924.354C3632.67 924.354 3681.75 939.777 3716.98 970.109C3752.21 1000.44 3769.83 1041.57 3769.83 1092.98C3769.83 1145.93 3750.95 1188.09 3713.83 1219.45C3676.71 1250.81 3625.75 1266.23 3561.58 1266.23C3499.92 1266.23 3450.22 1251.32 3414.36 1221.5C3377.24 1192.2 3359 1151.59 3359 1100.18ZM3457.14 1097.61C3457.14 1131.54 3466.58 1157.76 3485.45 1175.75C3504.33 1193.74 3531.38 1202.48 3566.61 1202.48C3600.59 1202.48 3627.01 1193.74 3644.63 1175.75C3662.24 1157.76 3671.68 1131.02 3671.68 1095.55C3671.68 1060.59 3662.24 1033.86 3644 1015.86C3625.75 997.87 3599.33 989.13 3565.98 989.13C3531.38 989.13 3504.96 998.384 3485.45 1017.41C3466.58 1036.43 3457.14 1062.65 3457.14 1097.61Z" fill="white"/>
<path d="M3909.5 1017.92C3909.5 1028.72 3913.9 1037.46 3922.08 1043.63C3930.89 1049.8 3949.76 1057.51 3978.7 1067.28C4016.45 1079.62 4042.87 1093.5 4057.97 1108.92C4073.07 1124.34 4080.62 1142.85 4080.62 1164.44C4080.62 1195.29 4066.15 1219.97 4037.21 1238.47C4008.27 1256.98 3969.26 1266.24 3920.19 1266.24C3903.83 1266.24 3885.59 1264.69 3865.46 1261.09C3845.32 1258.01 3828.34 1253.38 3814.5 1248.76V1173.18C3831.48 1182.95 3849.73 1190.66 3869.86 1196.32C3889.36 1201.97 3907.61 1205.06 3923.34 1205.06C3944.73 1205.06 3960.46 1202.49 3970.52 1197.86C3980.59 1193.23 3985.62 1185.01 3985.62 1173.18C3985.62 1162.39 3980.59 1153.65 3969.89 1146.45C3959.2 1139.25 3939.7 1130.51 3910.13 1121.26C3875.52 1109.43 3850.99 1096.07 3836.52 1081.16C3822.05 1066.25 3814.5 1047.23 3814.5 1024.61C3814.5 995.303 3828.97 971.14 3857.28 952.118C3885.59 933.097 3922.71 923.843 3968.64 923.843C3982.48 923.843 3998.21 924.871 4015.82 927.441C4033.44 930.012 4047.91 933.097 4059.23 937.209V1010.21C4046.65 1003.53 4032.18 997.874 4015.82 992.733C3999.46 988.106 3982.48 985.535 3966.75 985.535C3949.13 985.535 3934.66 988.62 3925.23 994.275C3914.53 999.93 3909.5 1008.16 3909.5 1017.92Z" fill="white"/>
<path d="M4122.15 1100.18C4122.15 1046.2 4141.02 1003.53 4178.14 971.651C4215.26 940.291 4267.48 924.354 4333.54 924.354C4395.83 924.354 4444.9 939.777 4480.13 970.109C4515.36 1000.44 4532.98 1041.57 4532.98 1092.98C4532.98 1145.93 4514.11 1188.09 4476.99 1219.45C4439.87 1250.81 4388.91 1266.23 4324.73 1266.23C4263.08 1266.23 4213.38 1251.32 4177.51 1221.5C4140.39 1192.2 4122.15 1151.59 4122.15 1100.18ZM4219.67 1097.61C4219.67 1131.54 4229.1 1157.76 4247.98 1175.75C4266.85 1193.74 4293.91 1202.48 4329.14 1202.48C4363.11 1202.48 4389.54 1193.74 4407.15 1175.75C4424.77 1157.76 4434.2 1131.02 4434.2 1095.55C4434.2 1060.59 4424.77 1033.86 4406.52 1015.86C4388.28 997.87 4361.85 989.13 4328.51 989.13C4293.91 989.13 4267.48 998.384 4247.98 1017.41C4229.1 1036.43 4219.67 1062.65 4219.67 1097.61Z" fill="white"/>
<path d="M4843.15 995.3V1162.9C4843.15 1197.86 4853.21 1223.56 4872.72 1241.04C4892.22 1258.52 4922.42 1266.75 4962.05 1266.75C4975.27 1266.75 4989.11 1265.72 5002.95 1263.15C5016.79 1260.58 5026.86 1258.52 5032.52 1255.44V1191.69C5026.86 1194.77 5019.94 1197.34 5012.39 1199.4C5004.84 1201.46 4997.92 1202.48 4992.88 1202.48C4974.01 1202.48 4959.54 1198.37 4950.73 1190.15C4941.92 1181.92 4937.52 1167.52 4937.52 1147.47V994.786H5033.15V932.065H4938.15V835.414L4843.78 859.063V932.579H4703.48V892.994C4703.48 873.458 4708.51 858.549 4719.2 848.267C4729.9 837.985 4745 833.358 4764.5 833.358C4774.57 833.358 4783.38 834.386 4791.56 836.442C4799.11 838.499 4804.77 840.555 4807.91 842.097V775.778C4800.99 773.722 4793.44 772.694 4784.64 771.665C4775.83 770.637 4765.76 770.123 4754.44 770.123C4711.66 770.123 4676.42 780.919 4649.37 803.026C4622.32 825.132 4608.48 852.894 4608.48 887.338V932.579H4541.79V995.3H4608.48V1259.03H4703.48V995.3H4843.15V995.3Z" fill="white"/>
<path d="M2488.26 803.028V1258.52H2391.38V901.736H2390.12L2217.1 1258.52H2152.93L1975.51 901.736H1974.25V1258.52H1884.91V803.028H2023.33L2183.76 1140.79H2186.27L2355.51 803.028H2488.26Z" fill="white"/>
<path d="M2139.09 606.127C2105.74 621.55 2068 629.261 2025.84 629.261C1993.76 629.261 1965.44 623.606 1940.28 611.782C1915.74 600.472 1896.24 584.02 1883.03 562.942C1869.81 541.864 1862.89 518.215 1862.89 491.996C1862.89 464.234 1870.44 439.043 1884.91 417.451C1899.38 395.859 1920.15 378.379 1947.2 366.041C1974.25 353.702 2004.45 347.533 2038.43 347.533C2055.41 347.533 2072.4 349.076 2089.39 351.646C2106.37 354.217 2120.21 357.815 2130.91 361.928V403.056C2105.74 389.176 2073.66 382.492 2034.65 382.492C2011.37 382.492 1990.61 387.119 1971.74 396.373C1952.86 405.627 1938.39 418.479 1928.33 434.417C1918.26 450.868 1913.23 469.376 1913.23 489.94C1913.23 522.328 1923.92 548.033 1944.68 567.055C1965.44 586.077 1994.39 595.331 2030.88 595.331C2054.15 595.331 2074.92 591.732 2092.53 584.02V513.588H2021.44V479.658H2139.09V606.127Z" fill="white"/>
<path d="M2410.25 537.75H2245.41C2246.04 557.286 2253.59 572.195 2266.17 582.991C2279.39 593.273 2296.37 598.928 2317.76 598.928C2346.08 598.928 2370.61 592.245 2392 578.878V611.781C2382.57 616.922 2370.61 621.549 2356.14 624.634C2341.67 627.718 2326.57 629.26 2311.47 629.26C2275.61 629.26 2247.3 620.521 2227.8 603.041C2208.29 585.562 2198.23 560.885 2198.23 529.01C2198.23 509.475 2203.26 491.481 2212.7 476.058C2222.13 460.121 2235.98 447.782 2252.96 439.042C2269.95 430.303 2289.45 425.676 2310.21 425.676C2341.04 425.676 2365.58 433.901 2383.2 450.353C2400.81 466.804 2409.62 489.425 2409.62 518.728V537.75H2410.25ZM2364.32 508.446C2364.32 491.481 2359.29 478.628 2349.85 469.889C2340.41 461.149 2327.2 456.522 2309.59 456.522C2293.86 456.522 2280.02 461.149 2268.06 470.403C2256.11 479.657 2249.19 492.509 2245.41 508.446H2364.32V508.446Z" fill="white"/>
<path d="M2588.92 622.58C2584.52 624.636 2578.86 626.179 2570.68 627.207C2563.13 628.235 2556.21 628.749 2549.92 628.749C2505.88 628.749 2483.86 608.699 2483.86 569.113V461.152H2443.59V430.305H2483.86V384.036L2529.79 372.212V429.791H2588.3V460.638H2529.79V562.43C2529.79 575.282 2532.3 584.536 2537.34 589.677C2542.37 594.818 2551.18 597.389 2564.39 597.389C2573.2 597.389 2581.38 595.332 2588.3 591.22V622.58H2588.92Z" fill="white"/>
<path d="M2816.68 361.414C2816.68 367.584 2814.16 372.725 2808.5 377.352C2802.83 381.978 2795.91 384.035 2787.73 384.035C2779.56 384.035 2772.64 381.978 2766.97 377.352C2761.31 373.239 2758.79 367.584 2758.79 360.9C2758.79 354.217 2761.94 348.562 2767.6 344.449C2773.26 340.336 2780.19 337.766 2787.73 337.766C2795.28 337.766 2802.21 339.822 2807.87 344.449C2814.16 349.59 2816.68 354.731 2816.68 361.414ZM2810.38 624.635H2764.46V430.304H2810.38V624.635Z" fill="white"/>
<path d="M3009.82 622.58C3005.42 624.636 2999.76 626.179 2991.58 627.207C2984.03 628.235 2977.11 628.749 2970.81 628.749C2926.77 628.749 2904.75 608.699 2904.75 569.113V461.152H2864.49V430.305H2904.75V384.036L2950.68 372.212V429.791H3009.19V460.638H2950.68V562.43C2950.68 575.282 2953.2 584.536 2958.23 589.677C2963.26 594.818 2972.07 597.389 2985.28 597.389C2994.09 597.389 3002.27 595.332 3009.19 591.22V622.58H3009.82Z" fill="white"/>
<path d="M3310.55 368.611C3303 365.527 3294.82 363.47 3285.39 363.47C3259.59 363.47 3247.01 376.323 3247.01 402.028V429.789H3301.12V460.636H3247.01V624.12H3201.08V461.15H3160.82V430.303H3201.08V400.486C3201.08 379.921 3208 363.47 3222.47 351.132C3236.94 338.793 3256.45 332.624 3281.61 332.624C3294.19 332.624 3303.63 333.652 3311.18 336.223V368.611H3310.55Z" fill="white"/>
<path d="M3479.79 467.832C3477.27 466.29 3472.24 464.748 3465.95 463.205C3459.66 462.177 3454 461.149 3449.59 461.149C3433.23 461.149 3420.02 467.318 3409.96 479.143C3399.89 490.967 3394.86 506.39 3394.86 525.412V624.634H3348.93V430.303H3394.86V469.375H3396.12C3401.15 456.008 3409.33 445.726 3420.02 438.014C3430.72 430.303 3443.3 426.704 3457.14 426.704C3466.58 426.704 3474.13 427.732 3479.16 429.275V467.832H3479.79Z" fill="white"/>
<path d="M3742.15 526.44C3742.15 557.8 3730.82 582.991 3708.8 601.499C3686.78 620.007 3657.21 629.26 3620.72 629.26C3584.86 629.26 3555.92 620.007 3534.53 602.013C3513.14 584.019 3502.44 559.857 3502.44 529.525C3502.44 497.136 3513.77 471.945 3535.79 453.437C3557.81 434.93 3588.01 425.676 3626.38 425.676C3662.25 425.676 3690.56 434.416 3710.69 452.409C3732.08 470.403 3742.15 495.08 3742.15 526.44ZM3694.96 527.468C3694.96 504.333 3688.67 486.854 3676.72 475.03C3664.13 463.205 3647.15 457.036 3624.5 457.036C3601.85 457.036 3583.6 463.205 3570.39 476.058C3557.18 488.396 3550.89 506.39 3550.89 529.01C3550.89 551.117 3557.18 568.082 3570.39 580.421C3583.6 592.759 3601.22 598.928 3624.5 598.928C3647.77 598.928 3665.39 592.759 3677.34 580.935C3688.67 568.082 3694.96 550.603 3694.96 527.468Z" fill="white"/>
<path d="M4152.98 624.635H4107.05V514.103C4107.05 494.053 4103.27 479.658 4095.72 470.404C4088.18 461.15 4074.96 457.037 4056.72 457.037C4041.62 457.037 4028.41 462.693 4018.34 474.003C4007.64 485.313 4002.61 499.194 4002.61 514.617V624.635H3956.68V510.504C3956.68 475.031 3939.7 457.037 3906.35 457.037C3890.62 457.037 3877.41 462.693 3867.35 473.489C3857.28 484.285 3852.25 498.166 3852.25 515.131V625.149H3806.32V430.304H3852.25V460.636H3852.87C3869.86 436.987 3895.03 425.677 3927.11 425.677C3942.21 425.677 3956.05 429.276 3968.64 435.959C3980.59 442.643 3989.4 452.411 3995.06 464.749C4004.5 451.382 4015.19 441.614 4028.41 434.931C4041.62 428.762 4056.72 425.163 4074.33 425.163C4126.55 425.163 4152.35 451.382 4152.35 504.335V624.635H4152.98Z" fill="white"/>
</svg>
